<?xml version="1.0" encoding="iso-8859-1"?>
<!-- Uploaded to: SVG Repo, www.svgrepo.com, Generator: SVG Repo Mixer Tools -->
<svg version="1.1" id="Layer_1" xmlns="http://www.w3.org/2000/svg" xmlns:xlink="http://www.w3.org/1999/xlink" 
	 viewBox="0 0 512 512" xml:space="preserve">
<g>
	<path style="fill:#FA004B;" d="M327.732,120.426h32.488c21.863,0,39.588,17.724,39.588,39.588v8.463l-24.025,24.025
		L327.732,120.426z"/>
	<path style="fill:#FA004B;" d="M111.504,168.477v-8.463c0-21.863,17.724-39.588,39.588-39.588h32.49l-48.052,72.076
		L111.504,168.477z"/>
</g>
<polygon style="fill:#36C9A3;" points="15.673,464.7 15.673,441.712 32.392,441.712 32.392,416.635 15.673,416.635 15.673,392.602 
	496.327,392.602 496.327,416.635 479.608,416.635 479.608,441.712 496.327,441.712 496.327,464.7 "/>
<g>
	<rect y="371.818" style="fill:#FA004B;" width="511.927" height="20.898"/>
	<rect y="467.071" style="fill:#FA004B;" width="511.927" height="20.898"/>
</g>
<path style="fill:#FAEDD6;" d="M31.42,368.688L9.453,90.439c-0.705-8.936,10.096-13.917,16.434-7.579L135.53,192.502L247.688,28.004
	c3.829-5.615,12.108-5.615,15.937,0l112.158,164.498L485.425,82.86c6.338-6.338,17.139-1.357,16.434,7.579l-21.967,278.249"/>
<path style="fill:#FA004B;" d="M307.123,201.14c-13.594-13.594-35.634-13.594-49.228,0l-2.238,2.238l-2.237-2.238
	c-13.594-13.594-35.634-13.594-49.228,0s-13.594,35.634,0,49.228l51.466,51.466l51.466-51.466
	C320.717,236.774,320.717,214.734,307.123,201.14z"/>
<g>
	<circle style="fill:#36C9A3;" cx="63.454" cy="192.503" r="16.017"/>
	<circle style="fill:#36C9A3;" cx="255.655" cy="112.422" r="16.017"/>
	<circle style="fill:#36C9A3;" cx="447.864" cy="192.503" r="16.017"/>
</g>
<g>
	<rect x="31.42" y="344.661" style="fill:#FFFFFF;" width="448.47" height="24.025"/>
	<rect x="56.424" y="416.634" style="fill:#FFFFFF;" width="15.673" height="25.078"/>
	<rect x="439.902" y="416.634" style="fill:#FFFFFF;" width="15.673" height="25.078"/>
</g>
<path style="fill:#232323;" d="M504.686,424.994v-24.033H512v-15.673H0v15.673h7.314v24.033h16.718v8.359H7.314v22.988H0v15.673h512
	v-15.673h-7.314v-22.988h-16.718v-8.359H504.686z M489.012,449.027v7.314H22.988v-7.314h16.718V409.32H22.988v-8.359h466.024v8.359
	h-16.718v39.706H489.012z"/>
<g>
	<rect x="246.596" y="416.634" style="fill:#FFFFFF;" width="15.673" height="25.078"/>
	<rect x="151.51" y="416.634" style="fill:#FFFFFF;" width="15.673" height="25.078"/>
	<rect x="343.771" y="416.634" style="fill:#FFFFFF;" width="15.673" height="25.078"/>
</g>
<g>
	<rect y="480.372" style="fill:#232323;" width="512" height="15.673"/>
	<path style="fill:#232323;" d="M63.455,216.356c-13.153,0-23.854-10.7-23.854-23.853c0-13.153,10.701-23.855,23.854-23.855
		s23.853,10.701,23.853,23.854C87.307,205.655,76.607,216.356,63.455,216.356z M63.455,184.322c-4.511,0-8.181,3.67-8.181,8.181
		c0,4.51,3.67,8.179,8.181,8.179c4.51,0,8.179-3.67,8.179-8.179C71.634,187.991,67.964,184.322,63.455,184.322z"/>
	<path style="fill:#232323;" d="M255.656,136.272c-13.153,0-23.853-10.701-23.853-23.854s10.7-23.854,23.853-23.854
		s23.854,10.701,23.854,23.854S268.809,136.272,255.656,136.272z M255.656,104.237c-4.51,0-8.179,3.67-8.179,8.181
		s3.67,8.181,8.179,8.181c4.511,0,8.181-3.67,8.181-8.181S260.167,104.237,255.656,104.237z"/>
	<path style="fill:#232323;" d="M447.859,216.356c-13.153,0-23.854-10.7-23.854-23.853c0-13.153,10.701-23.854,23.854-23.854
		c13.153,0,23.853,10.701,23.853,23.854C471.712,205.656,461.012,216.356,447.859,216.356z M447.859,184.322
		c-4.511,0-8.181,3.67-8.181,8.181c0,4.51,3.67,8.179,8.181,8.179c4.51,0,8.179-3.67,8.179-8.179
		C456.038,187.991,452.37,184.322,447.859,184.322z"/>
	<path style="fill:#232323;" d="M255.656,312.917l-57.008-57.008c-8.055-8.055-12.491-18.764-12.491-30.156
		c0-11.39,4.437-22.1,12.491-30.155c8.055-8.055,18.764-12.491,30.155-12.491c9.897,0,19.278,3.348,26.852,9.51
		c7.572-6.161,16.956-9.51,26.852-9.51c11.392,0,22.101,4.436,30.156,12.492v-0.001c16.627,16.627,16.627,43.684,0,60.312
		L255.656,312.917z M228.804,198.781c-7.205,0-13.978,2.806-19.071,7.9c-5.095,5.095-7.902,11.868-7.902,19.074
		c0,7.205,2.807,13.978,7.9,19.071l45.924,45.925l45.924-45.925c10.517-10.516,10.517-27.627,0-38.144v-0.001
		c-5.094-5.095-11.867-7.9-19.073-7.9c-7.206,0-13.979,2.806-19.073,7.9l-7.779,7.776l-7.777-7.774
		C242.783,201.586,236.009,198.781,228.804,198.781z"/>
	<path style="fill:#232323;" d="M488.423,360.21l21.249-269.156c0.583-7.379-3.384-14.15-10.106-17.249
		c-6.718-3.098-14.446-1.721-19.683,3.512l-73.196,73.196c-4.412-21.614-23.57-37.925-46.468-37.925H330.78l-60.681-89
		c-3.258-4.78-8.658-7.634-14.443-7.634c-5.786,0-11.186,2.853-14.444,7.634l-60.682,89h-29.438
		c-22.897,0-42.055,16.312-46.467,37.926L31.428,77.318c-5.235-5.234-12.961-6.611-19.682-3.512
		C5.026,76.905,1.058,83.676,1.64,91.055L22.89,360.211H0v15.673h512v-15.673h-23.577V360.21z M360.22,128.263
		c17.507,0,31.751,14.244,31.751,31.751v5.217l-15.042,15.042l-35.462-52.01h18.753V128.263z M119.342,160.014
		c0-17.507,14.243-31.751,31.75-31.751h18.753l-35.462,52.01l-15.041-15.041C119.342,165.231,119.342,160.014,119.342,160.014z
		 M38.034,352.896h4.807v-15.673h-6.044l-3.795-48.065h25.512v-15.673H31.765l-14.5-183.662c-0.066-0.834,0.285-1.434,1.045-1.784
		c0.762-0.352,1.445-0.229,2.035,0.364l116.331,116.331L254.162,32.418c0.445-0.652,1.058-0.789,1.495-0.789
		c0.436,0,1.049,0.137,1.494,0.789l117.485,172.314l116.33-116.331c0.591-0.591,1.276-0.716,2.036-0.364
		c0.76,0.35,1.111,0.95,1.045,1.784l-14.5,183.663h-23.972v15.673h22.735l-3.795,48.065h-10.581v15.673h9.343l-0.578,7.314H38.612
		L38.034,352.896z"/>
	<rect x="234.057" y="337.221" style="fill:#232323;" width="15.673" height="15.673"/>
	<rect x="211.069" y="337.221" style="fill:#232323;" width="15.673" height="15.673"/>
	<rect x="188.082" y="337.221" style="fill:#232323;" width="15.673" height="15.673"/>
	<rect x="142.106" y="337.221" style="fill:#232323;" width="15.673" height="15.673"/>
	<rect x="96.131" y="337.221" style="fill:#232323;" width="15.673" height="15.673"/>
	<rect x="119.118" y="337.221" style="fill:#232323;" width="15.673" height="15.673"/>
	<rect x="50.155" y="337.221" style="fill:#232323;" width="15.673" height="15.673"/>
	<rect x="73.143" y="337.221" style="fill:#232323;" width="15.673" height="15.673"/>
	<rect x="165.094" y="337.221" style="fill:#232323;" width="15.673" height="15.673"/>
	<rect x="371.984" y="337.221" style="fill:#232323;" width="15.673" height="15.673"/>
	<rect x="394.971" y="337.221" style="fill:#232323;" width="15.673" height="15.673"/>
	<rect x="417.959" y="337.221" style="fill:#232323;" width="15.673" height="15.673"/>
	<rect x="440.947" y="337.221" style="fill:#232323;" width="15.673" height="15.673"/>
	<rect x="348.996" y="337.221" style="fill:#232323;" width="15.673" height="15.673"/>
	<rect x="303.02" y="337.221" style="fill:#232323;" width="15.673" height="15.673"/>
	<rect x="280.033" y="337.221" style="fill:#232323;" width="15.673" height="15.673"/>
	<rect x="257.045" y="337.221" style="fill:#232323;" width="15.673" height="15.673"/>
	<rect x="326.008" y="337.221" style="fill:#232323;" width="15.673" height="15.673"/>
</g>
</svg>